 http://www.torrentday.com - Your Gateway To The Scene.

we are the most on-time tracker around the globe, You can download releases whenever they release out by group uploaders. no Wait Time.

TorrentDay is a private tracker torrent website, which is totally free, safe and fast.

Higher Speed Download is available at: TorrentDay - Your Gateway To The Scene.

.
 
http://www.torrentday.com - Your Key To The Scene.

...................................NFO:....................................

.SPRiNTER proudly presents...



The.Glittering.Prizes.1976.Part.02.A.Love.Life.DVDRip.XviD-SPRiNTER 
http://www.imdb.com/title/tt0073999/
Subtitles: English

Date: 2010.02


Director: Waris Hussein, Robert Knights

Product Description: The Glittering Prizes was a critical sensation when it premiered on PBS in the late 1970s. Frederic Raphaels tale portrays the hopes and frustrations of an entire generation through the story of a group of friends who meet the prestigious Cambridge University in the 1950s. Tom Conti and Barbara Kellerman lead an outstanding ensemble cast in a series of six 80-minute episodes that follow the evolution of these privileged, idealistic college students through the turbulent 1960s and into the 1970s where their lives diverge and they struggle with emotional disillusionment and varying levels of worldly success.

Cast
 
 Tom Conti ...  Adam Morris (4 episodes, 1976) 
 Barbara Kellerman ...  Barbara Morris / ... (4 episodes, 1976) 
 Mark Wing-Davey ...  Mike Clode (4 episodes, 1976) 
 Jeremy Child ...  John Cadman (3 episodes, 1976) 
 John Gregg ...  Alan Parks (3 episodes, 1976) 
 Roger Hammond ...  Ronald Braithwaite (3 episodes, 1976) 
 Nigel Havers ...  Denis Porson (3 episodes, 1976) 
 Clive Merrison ...  Bill Bourne (3 episodes, 1976) 
 Emily Richard ...  Anna Cunningham (3 episodes, 1976) 
 Leonard Sachs ...  Lionel Morris (3 episodes, 1976) 
 Malcolm Stoddard ...  Dan Bradley (3 episodes, 1976) 
 Simon Cadell ...  Ken Hobbs (2 episodes, 1976) 
 Anna Carteret ...  Barbara Parks / ... (2 episodes, 1976) 
 Angela Down ...  Joyce Bradley / ... (2 episodes, 1976) 
 Steve Plytas ...  Bruno Laszlo (2 episodes, 1976) 
 Suzanne Stone ...  Joann Bourne / ... (2 episodes, 1976)


Release notes:

Enjoy!

Format                           : AVI
Format/Info                      : Audio Video Interleave
File size                        : 701 MiB
Duration                         : 1h 19mn
Overall bit rate                 : 1 238 Kbps
Writing application              : VirtualDubMod 1.5.10.2 (build 2540/release)
Writing library                  : VirtualDubMod build 2540/release

Video
ID                               : 0
Format                           : MPEG-4 Visual
Format profile                   : AdvancedSimple@L5
Format settings, BVOP            : Yes
Format settings, QPel            : No
Format settings, GMC             : No warppoints
Format settings, Matrix          : Default (H.263)
Codec ID                         : XVID
Codec ID/Hint                    : XviD
Duration                         : 1h 19mn
Bit rate                         : 1 139 Kbps
Width                            : 512 pixels
Height                           : 384 pixels
Display aspect ratio             : 4:3
Frame rate                       : 29.970 fps
Resolution                       : 24 bits
Colorimetry                      : 4:2:0
Scan type                        : Progressive
Bits/(Pixel*Frame)               : 0.193
Stream size                      : 645 MiB (92%)
Writing library                  : XviD 1.2.1 (UTC 2008-12-04)

Audio
ID                               : 1
Format                           : MPEG Audio
Format version                   : Version 1
Format profile                   : Layer 3
Codec ID                         : 55
Codec ID/Hint                    : MP3
Duration                         : 1h 19mn
Bit rate mode                    : Variable
Bit rate                         : 85.0 Kbps
Minimum bit rate                 : 32.0 Kbps
Channel(s)                       : 1 channel
Sampling rate                    : 48.0 KHz
Resolution                       : 16 bits
Stream size                      : 48.2 MiB (7%)
Alignment                        : Aligned on interleaves
Interleave, duration             : 24 ms (0.72 video frame)
Interleave, preload duration     : 429 ms
Writing library                  : LAME3.95 
Encoding settings                : -m m -V 4 -q 3 -lowpass 18 --vbr-old -b 32